<svg 
          width="22" 
          height="22" fill="none" 
          xmlns="http://www.w3.org/2000/svg">
          <path d="M 18.700000000000003 22 L 3.3000000000000003 22 C 1.47746502161026 22 0 20.522590053081515 0 18.700000000000003 L 0 1.1 C 0 0.4924919903278351 0.4924919903278351 0 1.1 0 L 16.5 0 C 17.107529973983766 0 17.6 0.4924919903278351 17.6 1.1 L 17.6 14.3 L 22 14.3 L 22 18.700000000000003 C 22 20.522590053081515 20.522590053081515 22 18.700000000000003 22 Z M 17.6 16.5 L 17.6 18.700000000000003 C 17.6 19.30752997398377 18.092470026016237 19.8 18.700000000000003 19.8 C 19.30752997398377 19.8 19.8 19.30752997398377 19.8 18.700000000000003 L 19.8 16.5 L 17.6 16.5 Z M 4.4 5.5 L 4.4 7.700000000000001 L 13.200000000000001 7.700000000000001 L 13.200000000000001 5.5 L 4.4 5.5 Z M 4.4 9.9 L 4.4 12.100000000000001 L 13.200000000000001 12.100000000000001 L 13.200000000000001 9.9 L 4.4 9.9 Z M 4.4 14.3 L 4.4 16.5 L 9.9 16.5 L 9.9 14.3 L 4.4 14.3 Z" fill="rgb(231.00000143051147,240.00000089406967,220.00000208616257)"/>
        </svg>