<svg 
          width="22" 
          height="19" fill="none" 
          xmlns="http://www.w3.org/2000/svg">
          <path d="M 20.95238190389188 3.1666652405711067 L 13.619056230221494 3.1666652405711067 C 10.147564186310372 3.1666652405711067 7.333326672756856 6.002191343735937 7.333326672756856 9.500005033278448 C 7.333326672756856 12.99779758305148 10.147564186310372 15.833335011092815 13.619056230221494 15.833335011092815 L 20.95238190389188 15.833335011092815 L 20.95238190389188 17.944445003697606 C 20.95238190389188 18.52742800319036 20.48336325748693 19 19.904763807783755 19 L 1.0476180961081223 19 C 0.4690395647779513 19 0 18.52742800319036 0 17.944445003697606 L 0 1.0555549963023947 C 0 0.4725825037784026 0.4690395647779513 0 1.0476180961081223 0 L 19.904763807783755 0 C 20.48336325748693 0 20.95238190389188 0.4725825037784026 20.95238190389188 1.0555549963023947 L 20.95238190389188 3.1666652405711067 Z M 13.619056230221494 5.277774981511973 L 22 5.277774981511973 L 22 13.722225018488027 L 13.619056230221494 13.722225018488027 C 11.304658431408807 13.722225018488027 9.428583845789005 11.831831584065977 9.428583845789005 9.500005033278448 C 9.428583845789005 7.16812563306722 11.304658431408807 5.277774981511973 13.619056230221494 5.277774981511973 Z M 13.619056230221494 8.444450036976052 L 13.619056230221494 10.555560029580842 L 16.76190951945939 10.555560029580842 L 16.76190951945939 8.444450036976052 L 13.619056230221494 8.444450036976052 Z" fill="rgb(231.00000143051147,240.00000089406967,220.00000208616257)"/>
        </svg>