<svg 
          width="22" 
          height="20" fill="none" 
          xmlns="http://www.w3.org/2000/svg">
          <path d="M 11.634221076965332 0.20137295126914978 C 11.254833608865738 -0.06712433695793152 10.745165437459946 -0.06712433695793152 10.365777969360352 0.20137295126914978 L 0 7.537275314331055 L 1.268422245979309 9.296648025512695 L 10.999945640563965 2.409621477127075 L 20.731555938720703 9.296648025512695 L 22 7.537275314331055 L 11.634221076965332 0.20137295126914978 Z M 19.272165298461914 11.012215614318848 L 11.634221076965332 5.606778144836426 C 11.254833608865738 5.3382808566093445 10.745165437459946 5.3382808566093445 10.365777969360352 5.606778144836426 L 2.7278366088867188 11.012215614318848 C 2.441097378730774 11.215134531259537 2.2709128856658936 11.542702287435532 2.2709128856658936 11.891891479492188 L 2.2709128856658936 18.91891860961914 C 2.2709128856658936 19.515999615192413 2.7594246864318848 20 3.3620474338531494 20 L 18.637889862060547 20 C 19.24052345752716 20 19.729022979736328 19.515999615192413 19.729022979736328 18.91891860961914 L 19.729022979736328 11.891891479492188 C 19.729022979736328 11.542702287435532 19.558915466070175 11.215134531259537 19.272165298461914 11.012215614318848 Z" fill="rgb(231.00000143051147,240.00000089406967,220.00000208616257)"/>
        </svg>