<svg 
          width="5" 
          height="23" fill="none" 
          xmlns="http://www.w3.org/2000/svg">
          <path d="M 2.5 0 C 1.1249999701976776 0 0 1.1499999695354037 0 2.5555555555555554 C 0 3.961111141575707 1.1249999701976776 5.111111111111111 2.5 5.111111111111111 C 3.8750000298023224 5.111111111111111 5 3.961111141575707 5 2.5555555555555554 C 5 1.1499999695354037 3.8750000298023224 0 2.5 0 Z M 2.5 17.888888888888886 C 1.1249999701976776 17.888888888888886 0 19.03888885842429 0 20.444444444444443 C 0 21.850000030464596 1.1249999701976776 23 2.5 23 C 3.8750000298023224 23 5 21.850000030464596 5 20.444444444444443 C 5 19.03888885842429 3.8750000298023224 17.888888888888886 2.5 17.888888888888886 Z M 2.5 8.944444444444443 C 1.1249999701976776 8.944444444444443 0 10.094444413979849 0 11.5 C 0 12.905555586020151 1.1249999701976776 14.055555555555554 2.5 14.055555555555554 C 3.8750000298023224 14.055555555555554 5 12.905555586020151 5 11.5 C 5 10.094444413979849 3.8750000298023224 8.944444444444443 2.5 8.944444444444443 Z" fill="rgb(231.00000143051147,240.00000089406967,220.00000208616257)"/>
        </svg>